<mxfile host="app.diagrams.net" modified="2024-05-20T23:51:04.748Z" agent="Mozilla/5.0 (X11; Linux x86_64; rv:126.0) Gecko/20100101 Firefox/126.0" version="24.4.4" etag="dzX6tR2WHhPsbqLWhSGJ" type="github">
  <diagram name="Page-1" id="JUuFyAPK8oX2ykOomS8K">
    <mxGraphModel>
      <root>
        <mxCell id="0" />
        <mxCell id="1" parent="0" />
      </root>
    </mxGraphModel>
  </diagram>
</mxfile>
